PathFileType	4	(X/Y/Z)	/Users/itak/Documents/Research/Walk-IL/dataset/trc/00434_00167.trc
DataRate	CameraRate	NumFrames	NumMarkers	Units	OrigDataRate	OrigDataStartFrame	OrigNumFrames
100.000000	100.000000	4	53	mm	100.000000	90	724
Frame#	Time	RPSI			LPSI			L3			STRN			T10			C7			CLAV			RBAK			LBAK			LSHO			LUPA			LAEL			LAOL			LWTS			LWPS			LFRA			LIFD			LHPS			LHTS			RSHO			RUPA			RAEL			RAOL			RWTS			RWPS			RFRA			RIFD			RHTS			RHPS			RBHD			LFHD			RFHD			LBHD			LHIP			RHIP			RASI			LASI			LKNE			LTHI			LANK			LTIP			LTOE			LMT1			LMT5			LHEE			RKNE			RTHI			RANK			RTIP			RTOE			RMT1			RMT5			RHEE			
		X1	Y1	Z1	X2	Y2	Z2	X3	Y3	Z3	X4	Y4	Z4	X5	Y5	Z5	X6	Y6	Z6	X7	Y7	Z7	X8	Y8	Z8	X9	Y9	Z9	X10	Y10	Z10	X11	Y11	Z11	X12	Y12	Z12	X13	Y13	Z13	X14	Y14	Z14	X15	Y15	Z15	X16	Y16	Z16	X17	Y17	Z17	X18	Y18	Z18	X19	Y19	Z19	X20	Y20	Z20	X21	Y21	Z21	X22	Y22	Z22	X23	Y23	Z23	X24	Y24	Z24	X25	Y25	Z25	X26	Y26	Z26	X27	Y27	Z27	X28	Y28	Z28	X29	Y29	Z29	X30	Y30	Z30	X31	Y31	Z31	X32	Y32	Z32	X33	Y33	Z33	X34	Y34	Z34	X35	Y35	Z35	X36	Y36	Z36	X37	Y37	Z37	X38	Y38	Z38	X39	Y39	Z39	X40	Y40	Z40	X41	Y41	Z41	X42	Y42	Z42	X43	Y43	Z43	X44	Y44	Z44	X45	Y45	Z45	X46	Y46	Z46	X47	Y47	Z47	X48	Y48	Z48	X49	Y49	Z49	X50	Y50	Z50	X51	Y51	Z51	X52	Y52	Z52	X53	Y53	Z53	

91	0.9	-1184.354736328125	975.064208984375	-423.8117980957031	-1112.988403320312	972.0213623046875	-546.0278930664062	-1145.22998046875	1066.312255859375	-466.0631103515625	-902.8668823242188	1252.437866210938	-352.3334655761719	-1160.108032226562	1190.2138671875	-479.213134765625	-1101.923217773438	1457.201171875	-437.0198364257812	-931.0997924804688	1367.466552734375	-371.5169982910156	-1204.17236328125	1339.572631835938	-380.7932739257812	-1090.322875976562	1412.169067382812	-540.3853149414062	-961.1800537109375	1428.279418945312	-567.765869140625	-934.607666015625	1309.41064453125	-663.275390625	-903.8255615234375	1094.26220703125	-685.7294921875	-1002.849304199219	1078.319946289062	-656.3885498046875	-838.521728515625	898.0478515625	-610.1153564453125	-860.361328125	878.6470947265625	-678.8070678710938	-878.84814453125	1007.797790527344	-685.1378784179688	-828.12744140625	729.2255249023438	-604.2311401367188	-849.917724609375	798.0624389648438	-671.1171264648438	-817.7310180664062	808.8814086914062	-609.1943359375	-1107.973388671875	1423.419921875	-261.6747436523438	-1156.689575195312	1361.888916015625	-200.4050750732422	-1175.987670898438	1073.215576171875	-151.0669555664062	-1208.115356445312	1056.3603515625	-208.4631500244141	-1058.063720703125	876.5938720703125	-152.1259002685547	-1140.576049804688	857.6917114257812	-127.3106002807617	-1174.512329101562	1014.65576171875	-141.2740173339844	-1053.110961914062	717.5140991210938	-146.4409484863281	-1045.280395507812	776.9518432617188	-136.3541564941406	-1119.787719726562	771.1797485351562	-125.0029678344727	-1065.0732421875	1648.674926757812	-326.2845458984375	-870.7738647460938	1664.80859375	-397.369873046875	-934.47900390625	1663.572021484375	-282.7640380859375	-992.7950439453125	1655.548217773438	-488.9800720214844	-942.5851440429688	859.1786499023438	-582.9762573242188	-1155.6875	864.7896728515625	-247.2244720458984	-1032.244750976562	902.2701416015625	-246.1723327636719	-892.7567749023438	893.7962036132812	-464.587890625	-981.6192016601562	436.2796325683594	-546.8602294921875	-940.2305297851562	585.9667358398438	-555.345703125	-1047.35546875	33.78285980224609	-562.9017333984375	-987.4969482421875	286.8115234375	-554.8447875976562	-886.45263671875	44.37360000610352	-392.5332336425781	-965.1590576171875	50.80300521850586	-403.9294738769531	-912.0787963867188	46.28951263427734	-504.1204833984375	-1119.492553710938	37.47277069091797	-546.7073974609375	-1125.079467773438	466.2699890136719	-277.354248046875	-1124.638061523438	727.0489501953125	-220.9318389892578	-1142.948364257812	41.15499496459961	-309.9732666015625	-1130.005004882812	319.8808898925781	-271.2595825195312	-929.4170532226562	48.29133224487305	-264.1995544433594	-971.8563842773438	55.96176910400391	-320.4567565917969	-1032.563110351562	48.44856262207031	-231.4146423339844	-1183.682373046875	33.85376739501953	-380.1907653808594	
92	0.91	-1184.234497070312	975.1029052734375	-423.8559265136719	-1112.962524414062	972.0534057617188	-546.0833129882812	-1145.129516601562	1066.314575195312	-466.0303039550781	-902.7698364257812	1252.426635742188	-352.3201599121094	-1160.0078125	1190.223876953125	-479.1824035644531	-1101.84033203125	1457.202026367188	-436.9930419921875	-930.9801635742188	1367.477783203125	-371.4968872070312	-1204.040893554688	1339.581665039062	-380.7632446289062	-1090.238891601562	1412.166625976562	-540.3448486328125	-961.0612182617188	1428.258911132812	-567.7323608398438	-934.4898071289062	1309.355712890625	-663.19921875	-903.6634521484375	1094.203979492188	-685.5432739257812	-1002.975952148438	1078.421875	-656.3280639648438	-838.3048095703125	898.1343383789062	-609.6732788085938	-860.19580078125	878.5872192382812	-678.3966674804688	-878.71630859375	1007.770812988281	-684.8915405273438	-827.9816284179688	729.2218017578125	-603.7335205078125	-849.7098388671875	798.0951538085938	-670.7335815429688	-817.4515991210938	808.9346923828125	-608.7272338867188	-1107.86328125	1423.420776367188	-261.6461486816406	-1156.561157226562	1361.8818359375	-200.3502807617188	-1175.881103515625	1073.21630859375	-151.0216827392578	-1208.047607421875	1056.387817382812	-208.3869171142578	-1058.052490234375	876.550537109375	-152.1675109863281	-1140.559326171875	857.677001953125	-127.3021850585938	-1174.427612304688	1014.659057617188	-141.250244140625	-1053.166137695312	717.4428100585938	-146.5007171630859	-1045.306030273438	776.9030151367188	-136.4191131591797	-1119.813232421875	771.1535034179688	-124.989013671875	-1064.91943359375	1648.675903320312	-326.2532348632812	-870.670166015625	1664.790283203125	-397.3811950683594	-934.3076782226562	1663.54833984375	-282.7512817382812	-992.6392822265625	1655.560546875	-488.9239501953125	-942.5410766601562	859.1923828125	-582.9862060546875	-1155.61572265625	864.8038940429688	-247.2635040283203	-1032.13037109375	902.2681884765625	-246.1664276123047	-892.5857543945312	893.7915649414062	-464.5945434570312	-981.604736328125	436.2669677734375	-546.8727416992188	-940.1891479492188	585.9323120117188	-555.3599853515625	-1047.35205078125	33.79169082641602	-562.8900146484375	-987.442626953125	286.8307800292969	-554.8408203125	-886.46826171875	44.36920547485352	-392.4994506835938	-965.1448974609375	50.8055305480957	-403.9215393066406	-912.072265625	46.28940200805664	-504.1157836914062	-1119.49560546875	37.49825286865234	-546.6925048828125	-1125.097290039062	466.2801208496094	-277.40625	-1124.582641601562	727.0531005859375	-220.9983062744141	-1142.948120117188	41.15515518188477	-309.9743957519531	-1130.027954101562	319.9014282226562	-271.2832641601562	-929.41748046875	48.28729248046875	-264.1948547363281	-971.8527221679688	55.96109390258789	-320.4515686035156	-1032.56689453125	48.45172500610352	-231.4097442626953	-1183.681884765625	33.85282516479492	-380.1907958984375	
93	0.92	-1184.118896484375	975.1434936523438	-423.8955383300781	-1112.884887695312	972.0552978515625	-546.1126098632812	-1145.037353515625	1066.315063476562	-466.0000305175781	-902.6793823242188	1252.415283203125	-352.3128967285156	-1159.906860351562	1190.2353515625	-479.1592712402344	-1101.762084960938	1457.201171875	-436.9705505371094	-930.8687133789062	1367.486572265625	-371.4793090820312	-1203.90966796875	1339.591796875	-380.7395935058594	-1090.152587890625	1412.162353515625	-540.3115234375	-960.9546508789062	1428.236938476562	-567.7017822265625	-934.3599243164062	1309.299438476562	-663.1231079101562	-903.4884643554688	1094.150268554688	-685.367431640625	-1002.906127929688	1078.399169921875	-656.2199096679688	-838.080078125	898.2150268554688	-609.2811889648438	-860.019775390625	878.5381469726562	-678.0610961914062	-878.54443359375	1007.74560546875	-684.6672973632812	-827.8546142578125	729.203369140625	-603.3416748046875	-849.518798828125	798.12158203125	-670.4297485351562	-817.1825561523438	808.9751586914062	-608.3110961914062	-1107.758422851562	1423.419311523438	-261.6239013671875	-1156.440673828125	1361.8740234375	-200.3025207519531	-1175.771362304688	1073.2158203125	-150.9825439453125	-1207.979370117188	1056.413940429688	-208.3129272460938	-1058.046142578125	876.505615234375	-152.2056579589844	-1140.541870117188	857.6609497070312	-127.2965621948242	-1174.33935546875	1014.6611328125	-141.2324676513672	-1053.231323242188	717.364501953125	-146.5632019042969	-1045.338989257812	776.8530883789062	-136.4759826660156	-1119.84814453125	771.1264038085938	-124.9684677124023	-1064.7666015625	1648.670532226562	-326.225830078125	-870.5579223632812	1664.771484375	-397.4085388183594	-934.1314086914062	1663.524536132812	-282.7478332519531	-992.500244140625	1655.5712890625	-488.8776550292969	-942.4981079101562	859.2050170898438	-582.9952392578125	-1155.54541015625	864.8181762695312	-247.2994689941406	-1032.019653320312	902.2718505859375	-246.1573791503906	-892.431396484375	893.7845458984375	-464.5989990234375	-981.5892944335938	436.2554626464844	-546.8831176757812	-940.1489868164062	585.8998413085938	-555.3692016601562	-1047.355834960938	33.79788589477539	-562.8776245117188	-987.3919067382812	286.8477478027344	-554.8319091796875	-886.4846801757812	44.36594772338867	-392.463134765625	-965.1328735351562	50.80764770507812	-403.9132080078125	-912.0654907226562	46.28864288330078	-504.1104125976562	-1119.500732421875	37.52452850341797	-546.676513671875	-1125.112548828125	466.2872009277344	-277.4585266113281	-1124.524658203125	727.054443359375	-221.0657348632812	-1142.947387695312	41.15529251098633	-309.9755554199219	-1130.048095703125	319.92041015625	-271.3064575195312	-929.4168090820312	48.28248596191406	-264.1903076171875	-971.8485717773438	55.96057510375977	-320.4466552734375	-1032.57080078125	48.45486450195312	-231.4041137695312	-1183.68115234375	33.85368728637695	-380.1909484863281	
94	0.93	-1184.006958007812	975.1843872070312	-423.9323120117188	-1112.735961914062	972.0247192382812	-546.1080322265625	-1144.952880859375	1066.314208984375	-465.9724731445312	-902.5953979492188	1252.40380859375	-352.3118286132812	-1159.807006835938	1190.247924804688	-479.1429748535156	-1101.686401367188	1457.198608398438	-436.9517517089844	-930.7640991210938	1367.492797851562	-371.4654235839844	-1203.778076171875	1339.603393554688	-380.7239990234375	-1090.062622070312	1412.15625	-540.286376953125	-960.8583984375	1428.2138671875	-567.6741333007812	-934.2236328125	1309.2451171875	-663.0504150390625	-903.302490234375	1094.101684570312	-685.2050170898438	-1002.676818847656	1078.277587890625	-656.0830688476562	-837.86083984375	898.2794189453125	-608.9501953125	-859.8311767578125	878.5023193359375	-677.7990112304688	-878.332763671875	1007.721496582031	-684.4638061523438	-827.7321166992188	729.177978515625	-603.0419921875	-849.34130859375	798.1397094726562	-670.1959838867188	-816.9354248046875	809.0003051757812	-607.9505615234375	-1107.65771484375	1423.415161132812	-261.6076965332031	-1156.328247070312	1361.865356445312	-200.2627716064453	-1175.65966796875	1073.214721679688	-150.9523773193359	-1207.912475585938	1056.437255859375	-208.2441558837891	-1058.04296875	876.460205078125	-152.2411041259766	-1140.521606445312	857.64404296875	-127.2944259643555	-1174.248168945312	1014.661560058594	-141.2210693359375	-1053.30078125	717.2808227539062	-146.6298828125	-1045.376831054688	776.8037719726562	-136.5218505859375	-1119.887329101562	771.10009765625	-124.9398574829102	-1064.618408203125	1648.66064453125	-326.2035217285156	-870.4364013671875	1664.752807617188	-397.4512634277344	-933.9522705078125	1663.502685546875	-282.7534484863281	-992.3809814453125	1655.580078125	-488.8422546386719	-942.4547119140625	859.2157592773438	-583.0043334960938	-1155.474853515625	864.8321533203125	-247.3306732177734	-1031.9169921875	902.2787475585938	-246.1468200683594	-892.2933349609375	893.7755737304688	-464.6026306152344	-981.5730590820312	436.2454528808594	-546.8922729492188	-940.1122436523438	585.8695068359375	-555.3726196289062	-1047.368774414062	33.80057525634766	-562.8640747070312	-987.3455200195312	286.8623046875	-554.819580078125	-886.4988403320312	44.36238861083984	-392.427490234375	-965.1242065429688	50.80839538574219	-403.905517578125	-912.0586547851562	46.28694534301758	-504.1043090820312	-1119.507080078125	37.55012130737305	-546.66064453125	-1125.125122070312	466.2918701171875	-277.5087280273438	-1124.465209960938	727.0538330078125	-221.1304626464844	-1142.946411132812	41.1553955078125	-309.9766845703125	-1130.0654296875	319.9372253417969	-271.3286437988281	-929.415283203125	48.27736282348633	-264.1858215332031	-971.8440551757812	55.96018218994141	-320.4424133300781	-1032.574829101562	48.45762252807617	-231.3983154296875	-1183.680297851562	33.8566780090332	-380.1912841796875	
